<?xml version="1.0" encoding="iso-8859-1"?>
<!-- Generator: Adobe Illustrator 28.7.1, SVG Export Plug-In . SVG Version: 9.03 Build 54978)  -->
<svg version="1.1" xmlns="http://www.w3.org/2000/svg" xmlns:xlink="http://www.w3.org/1999/xlink" x="0px" y="0px" width="28.8px"
	 height="28.8px" viewBox="0 0 28.8 28.8" enable-background="new 0 0 28.8 28.8" xml:space="preserve">
<g id="Layer_1" display="none">
	<g display="inline">
		<defs>
			
				<rect id="SVGID_1_" x="-726.704" y="-402.07" transform="matrix(-1 -4.489266e-11 4.489266e-11 -1 -1038.0096 599.9988)" width="415.399" height="1404.138"/>
		</defs>
		<clipPath id="SVGID_00000078024883691761151660000004502625467860288432_">
			<use xlink:href="#SVGID_1_"  overflow="visible"/>
		</clipPath>
		<g clip-path="url(#SVGID_00000078024883691761151660000004502625467860288432_)">
			
				<image overflow="visible" width="2038" height="1358" xlink:href="../insp/insp.png"  transform="matrix(-0.9216 0.3881 0.3881 0.9216 493.3431 -1055.2443)">
			</image>
		</g>
	</g>
</g>
<g id="Layer_2">
	<g>
		<path fill="#FF7E10" d="M28.8,28.8H0V0h17.613C23.791,0,28.8,5.009,28.8,11.187V28.8z"/>
		<g>
			<path fill="#FFFFFF" d="M7.4,11.59h1.312h6.125h1.313h0.219c0.363,0,0.656,0.293,0.656,0.656c0,0.364-0.293,0.656-0.656,0.656
				H16.15v0.525c-0.492,0.251-0.936,0.585-1.313,0.984v-1.51H8.713v1.75c0,1.692,1.37,3.063,3.062,3.063
				c0.664,0,1.282-0.213,1.783-0.571c-0.022,0.186-0.033,0.377-0.033,0.571c0,0.312,0.027,0.615,0.085,0.911
				c-0.366,0.169-0.763,0.289-1.179,0.353v2.018c0,0.364-0.293,0.656-0.656,0.656s-0.656-0.292-0.656-0.656v-2.018
				C9.014,18.662,7.4,16.846,7.4,14.653v-1.75H7.181c-0.363,0-0.656-0.292-0.656-0.656c0-0.363,0.293-0.656,0.656-0.656H7.4z
				 M10.025,10.715H8.713V8.309c0-0.363,0.293-0.656,0.656-0.656s0.656,0.293,0.656,0.656V10.715z M14.838,10.715h-1.312V8.309
				c0-0.363,0.293-0.656,0.656-0.656s0.656,0.293,0.656,0.656V10.715z M14.928,19.684c-0.703-1.218-0.703-2.719,0-3.938
				c0.703-1.218,2.003-1.969,3.41-1.969s2.707,0.751,3.41,1.969c0.703,1.219,0.703,2.72,0,3.938
				c-0.703,1.219-2.003,1.969-3.41,1.969S15.631,20.903,14.928,19.684z M19.234,15.484l-2.625,1.969
				c-0.111,0.085-0.158,0.232-0.114,0.367c0.044,0.134,0.169,0.224,0.312,0.224h0.974l-0.823,1.479
				c-0.076,0.137-0.047,0.304,0.071,0.407c0.117,0.104,0.29,0.109,0.413,0.017l2.625-1.969c0.111-0.085,0.158-0.232,0.114-0.366
				s-0.169-0.225-0.312-0.225h-0.974l0.823-1.479c0.076-0.137,0.047-0.306-0.071-0.407C19.53,15.397,19.357,15.391,19.234,15.484z"
				/>
		</g>
	</g>
</g>
</svg>
