<?xml version="1.0" encoding="iso-8859-1"?>
<!-- Generator: Adobe Illustrator 28.7.1, SVG Export Plug-In . SVG Version: 9.03 Build 54978)  -->
<svg version="1.1" id="Layer_1" xmlns="http://www.w3.org/2000/svg" xmlns:xlink="http://www.w3.org/1999/xlink" x="0px" y="0px"
	 width="110.674px" height="38.4px" viewBox="0 0 110.674 38.4" enable-background="new 0 0 110.674 38.4" xml:space="preserve">
<polygon fill="#262FD1" points="110.674,38.4 0,38.366 5.951,19.881 1.051,19.881 7.765,0 110.267,0 "/>
<g>
	<path fill="#FFFFFF" d="M76.173,22.638l1.189-3.929h1.764l-0.98-2.788c-0.991-2.068-2.824-2.129-2.824-2.129h-3.984l-2.033,6.806
		h3.194l-0.604,2.049l3.138,4.375h4.265L76.173,22.638z"/>
	<path fill="#FFFFFF" d="M56.269,13.793h-5.206l-1.639,4.953h1.701l-2.757,8.364l3.482,0.012c1.858,0,2.393-1.87,2.393-1.87
		l0.889-2.603h-1.464L56.269,13.793z"/>
	<path fill="#FFFFFF" d="M69.736,13.844l-5.165,0.041l-0.929,3.694l-2.696-3.786H58.08l-1.507,4.932h1.701l-2.664,8.384l3.75,0.008
		c0.916,0.002,1.726-0.593,1.998-1.467l0.82-2.359l2.614,3.755h5.368l-3.058-4.439L69.736,13.844z"/>
	<path fill="#FFFFFF" d="M49.329,13.766H38.39c-0.994,0-1.881,0.625-2.215,1.562l-1.206,3.382h1.701l-1.919,5.885l-0.008,0.019
		c0,0-0.182,0.587-0.074,1.123c0.108,0.533,0.588,1.498,1.867,1.498h6.447c3.495,0,4.094-2.031,4.094-2.031l0.874-2.445h-1.559
		L49.329,13.766z M43.315,21.42c0,0-0.344,1.202-1.539,1.202H39.57c0,0-0.015,0.002-0.04,0.002c-0.113,0-0.425-0.036-0.425-0.437
		c0.01-0.12,0.134-0.441,0.134-0.441l0.927-3.023l3.934,0.008L43.315,21.42z"/>
</g>
<g>
</g>
<g>
</g>
<g>
</g>
<g>
</g>
<g>
</g>
<g>
</g>
<g>
</g>
<g>
</g>
<g>
</g>
<g>
</g>
<g>
</g>
<g>
</g>
<g>
</g>
<g>
</g>
<g>
</g>
</svg>
