<?xml version="1.0" encoding="iso-8859-1"?>
<!-- Generator: Adobe Illustrator 28.7.1, SVG Export Plug-In . SVG Version: 9.03 Build 54978)  -->
<svg version="1.1" xmlns="http://www.w3.org/2000/svg" xmlns:xlink="http://www.w3.org/1999/xlink" x="0px" y="0px"
	 width="12.257px" height="14.506px" viewBox="0 0 12.257 14.506" enable-background="new 0 0 12.257 14.506" xml:space="preserve">
<g id="Layer_1" display="none">
	<g display="inline">
		<defs>
			
				<rect id="SVGID_1_" x="-65.584" y="-997.074" transform="matrix(-1 -4.489266e-11 4.489266e-11 -1 284.2309 -590.0101)" width="415.399" height="1404.138"/>
		</defs>
		<clipPath id="SVGID_00000181045138829826063950000000825810919731625120_">
			<use xlink:href="#SVGID_1_"  overflow="visible"/>
		</clipPath>
		<g transform="matrix(1 0 0 1 0 1.220703e-04)" clip-path="url(#SVGID_00000181045138829826063950000000825810919731625120_)">
			
				<image overflow="visible" width="2038" height="1358" xlink:href="../insp/insp.png"  transform="matrix(-0.9216 0.3881 0.3881 0.9216 1154.4634 -1650.2487)">
			</image>
		</g>
	</g>
</g>
<g id="Layer_2">
	<g>
	</g>
	<g>
		<path fill="#FF7E10" d="M12.214,10.03c-0.05,0.981-0.273,1.851-0.99,2.567c-0.716,0.719-1.586,0.943-2.567,0.989
			c-1.012,0.058-4.044,0.058-5.056,0c-0.981-0.049-1.849-0.273-2.567-0.989c-0.72-0.717-0.943-1.586-0.99-2.567
			c-0.058-1.012-0.058-4.045,0-5.057c0.049-0.981,0.271-1.851,0.99-2.567c0.719-0.716,1.588-0.94,2.567-0.987
			c1.012-0.057,4.044-0.057,5.056,0c0.981,0.05,1.852,0.273,2.567,0.99c0.72,0.717,0.943,1.586,0.99,2.567
			C12.271,5.988,12.271,9.019,12.214,10.03z M11.152,7.503c0-0.891,0.074-2.805-0.246-3.611c-0.216-0.539-0.629-0.952-1.164-1.165
			C8.938,2.409,7.021,2.48,6.13,2.48S3.324,2.406,2.518,2.727C1.979,2.942,1.566,3.355,1.353,3.892
			C1.035,4.695,1.106,6.612,1.106,7.503c0,0.892-0.073,2.806,0.246,3.612c0.216,0.539,0.629,0.952,1.165,1.165
			c0.804,0.317,2.721,0.246,3.612,0.246s2.806,0.074,3.612-0.246c0.538-0.216,0.951-0.629,1.164-1.165
			C11.227,10.312,11.152,8.395,11.152,7.503z M9.271,7.503c0,1.739-1.402,3.143-3.142,3.143S2.988,9.242,2.988,7.503
			c0-1.738,1.402-3.142,3.142-3.142S9.271,5.765,9.271,7.503z M8.172,7.503c0-1.126-0.916-2.042-2.042-2.042
			c-1.127,0-2.043,0.916-2.043,2.042c0,1.127,0.919,2.043,2.043,2.043S8.172,8.63,8.172,7.503z M9.4,3.5
			c-0.405,0-0.733,0.328-0.733,0.733c0,0.404,0.325,0.732,0.733,0.732c0.404,0,0.732-0.325,0.732-0.732
			C10.133,3.828,9.805,3.5,9.4,3.5z"/>
	</g>
</g>
</svg>
