<?xml version="1.0" encoding="iso-8859-1"?>
<!-- Generator: Adobe Illustrator 28.7.1, SVG Export Plug-In . SVG Version: 9.03 Build 54978)  -->
<svg version="1.1" xmlns="http://www.w3.org/2000/svg" xmlns:xlink="http://www.w3.org/1999/xlink" x="0px" y="0px"
	 width="23.954px" height="24.819px" viewBox="0 0 23.954 24.819" enable-background="new 0 0 23.954 24.819" xml:space="preserve">
<g id="Layer_1" display="none">
	<g display="inline">
		<defs>
			
				<rect id="SVGID_1_" x="129.388" y="-169.955" transform="matrix(-1 -4.489266e-11 4.489266e-11 -1 674.1742 1064.2281)" width="415.399" height="1404.138"/>
		</defs>
		<clipPath id="SVGID_00000037665034248405319220000007510534894448694424_">
			<use xlink:href="#SVGID_1_"  overflow="visible"/>
		</clipPath>
		<g clip-path="url(#SVGID_00000037665034248405319220000007510534894448694424_)">
			
				<image overflow="visible" width="2038" height="1358" xlink:href="../insp/insp.png"  transform="matrix(-0.9216 0.3881 0.3881 0.9216 1349.4351 -823.1295)">
			</image>
		</g>
	</g>
</g>
<g id="Layer_2">
	<g>
		<path fill="#262FD1" d="M7.715,2.021l1.871,4.491c0.318,0.762,0.099,1.642-0.543,2.166l-2.307,1.885
			c1.559,3.293,4.225,5.96,7.519,7.518l1.89-2.307c0.52-0.641,1.404-0.86,2.166-0.542l4.492,1.872c0.87,0.36,1.333,1.31,1.085,2.217
			l-1.123,4.117c-0.225,0.814-0.964,1.38-1.806,1.38C9.385,24.819,0,15.434,0,3.86c0-0.842,0.566-1.581,1.38-1.806l4.117-1.123
			c0.907-0.248,1.857,0.215,2.218,1.085V2.021z"/>
	</g>
</g>
</svg>
