<?xml version="1.0" encoding="iso-8859-1"?>
<!-- Generator: Adobe Illustrator 28.7.1, SVG Export Plug-In . SVG Version: 9.03 Build 54978)  -->
<svg version="1.1" xmlns="http://www.w3.org/2000/svg" xmlns:xlink="http://www.w3.org/1999/xlink" x="0px" y="0px" width="28.8px"
	 height="28.8px" viewBox="0 0 28.8 28.8" enable-background="new 0 0 28.8 28.8" xml:space="preserve">
<g id="Layer_1" display="none">
	<g display="inline">
		<defs>
			
				<rect id="SVGID_1_" x="-783.912" y="-377.505" transform="matrix(-1 -4.489266e-11 4.489266e-11 -1 -1152.425 649.1281)" width="415.399" height="1404.138"/>
		</defs>
		<clipPath id="SVGID_00000009569208485397583010000014078999643454091689_">
			<use xlink:href="#SVGID_1_"  overflow="visible"/>
		</clipPath>
		<g transform="matrix(1 0 0 1 -3.051758e-05 0)" clip-path="url(#SVGID_00000009569208485397583010000014078999643454091689_)">
			
				<image overflow="visible" width="2038" height="1358" xlink:href="../insp/insp.png"  transform="matrix(-0.9216 0.3881 0.3881 0.9216 436.1355 -1030.6796)">
			</image>
		</g>
	</g>
</g>
<g id="Layer_2">
	<g>
		<path fill="#FF7E10" d="M28.8,28.8H0V0h17.613C23.791,0,28.8,5.009,28.8,11.187V28.8z"/>
		<g>
			<path fill="#FFFFFF" d="M10.364,7.719l10.5,4.375c0.298,0.126,0.503,0.405,0.533,0.725c0.03,0.32-0.117,0.635-0.386,0.812
				l-5.25,3.5c-0.243,0.161-0.552,0.191-0.822,0.079l-1.937-0.807l-1.285,3.374c-0.128,0.339-0.454,0.563-0.817,0.563H8.276v0.438
				c0,0.484-0.391,0.875-0.875,0.875s-0.875-0.391-0.875-0.875v-1.312v-1.312c0-0.484,0.391-0.875,0.875-0.875
				s0.875,0.391,0.875,0.875v0.438h2.021l1.091-2.857l-4.322-1.802c-0.232-0.096-0.41-0.287-0.492-0.525
				c-0.082-0.238-0.058-0.498,0.068-0.716l2.625-4.594c0.219-0.383,0.688-0.544,1.096-0.375L10.364,7.719z M20.564,18.55
				l-3.186-1.446l3.634-2.42l1.004,0.445c0.219,0.099,0.317,0.35,0.227,0.569l-1.094,2.625c-0.046,0.109-0.131,0.194-0.243,0.238
				c-0.112,0.044-0.235,0.041-0.342-0.008V18.55z"/>
		</g>
	</g>
</g>
</svg>
