<?xml version="1.0" encoding="iso-8859-1"?>
<!-- Generator: Adobe Illustrator 28.7.1, SVG Export Plug-In . SVG Version: 9.03 Build 54978)  -->
<svg version="1.1" id="Layer_1" xmlns="http://www.w3.org/2000/svg" xmlns:xlink="http://www.w3.org/1999/xlink" x="0px" y="0px"
	 width="14px" height="12.25px" viewBox="0 0 14 12.25" enable-background="new 0 0 14 12.25" xml:space="preserve">
<g>
	<path fill="#262FD1" d="M14,7.219v3.718c0,0.725-0.588,1.312-1.312,1.312h-1.312c-0.571,0-1.059-0.366-1.238-0.875H3.863
		c-0.18,0.509-0.667,0.875-1.238,0.875H1.312C0.588,12.25,0,11.662,0,10.937V7.219c0-0.872,0.566-1.613,1.354-1.87
		C1.547,5.286,1.752,5.25,1.968,5.25c0.26,0,0.506,0.049,0.735,0.142C3.363,5.657,3.844,6.267,3.926,7h6.149
		c0.079-0.733,0.563-1.343,1.223-1.608c0.227-0.093,0.473-0.142,0.732-0.142c0.216,0,0.421,0.036,0.615,0.099
		C13.433,5.605,14,6.347,14,7.219z M2.625,3.5v0.952c-0.211-0.049-0.43-0.077-0.656-0.077S1.523,4.402,1.312,4.452V3.5
		c0-1.933,1.566-3.5,3.5-3.5h4.375c1.934,0,3.5,1.567,3.5,3.5v0.952c-0.211-0.049-0.43-0.077-0.656-0.077s-0.445,0.027-0.656,0.077
		V3.5c0-1.208-0.979-2.188-2.188-2.188H4.812C3.603,1.312,2.625,2.292,2.625,3.5z M2.625,8.312V7.219
		c0-0.364-0.293-0.656-0.656-0.656S1.312,6.855,1.312,7.219v3.718h1.312v-0.875V8.312z M10.062,8.312H9.187H4.812H3.937v1.75h6.125
		V8.312z M12.031,6.562c-0.363,0-0.656,0.292-0.656,0.656v3.718h1.312V7.219C12.687,6.855,12.394,6.562,12.031,6.562z"/>
</g>
</svg>
