<?xml version="1.0" encoding="iso-8859-1"?>
<!-- Generator: Adobe Illustrator 28.7.1, SVG Export Plug-In . SVG Version: 9.03 Build 54978)  -->
<svg version="1.1" xmlns="http://www.w3.org/2000/svg" xmlns:xlink="http://www.w3.org/1999/xlink" x="0px" y="0px"
	 width="27.364px" height="32.404px" viewBox="0 0 27.364 32.404" enable-background="new 0 0 27.364 32.404" xml:space="preserve">
<g id="Layer_1" display="none">
	<g display="inline">
		<defs>
			
				<rect id="SVGID_1_" x="127.983" y="-207.314" transform="matrix(-1 -4.489266e-11 4.489266e-11 -1 671.3651 989.5104)" width="415.399" height="1404.138"/>
		</defs>
		<clipPath id="SVGID_00000111154106933162515650000002719590379867446201_">
			<use xlink:href="#SVGID_1_"  overflow="visible"/>
		</clipPath>
		<g transform="matrix(1 0 0 1 0 6.103516e-05)" clip-path="url(#SVGID_00000111154106933162515650000002719590379867446201_)">
			
				<image overflow="visible" width="2038" height="1358" xlink:href="../insp/insp.png"  transform="matrix(-0.9216 0.3881 0.3881 0.9216 1348.0305 -860.4884)">
			</image>
		</g>
	</g>
</g>
<g id="Layer_2">
	<g>
		<path fill="#25D366" d="M27.364,16.651c0,7.477-6.218,13.56-13.688,13.56H13.67c-2.272,0-4.502-0.568-6.48-1.649L0,30.449
			l1.924-7.024c-1.185-2.058-1.808-4.392-1.808-6.78c0-7.477,6.084-13.56,13.56-13.56c3.622,0,7.03,1.411,9.59,3.977
			S27.364,13.029,27.364,16.651z M25.073,16.651c0.007-3.011-1.301-5.839-3.426-7.971c-2.126-2.132-4.954-3.305-7.965-3.305
			c-6.219,0-11.276,5.058-11.276,11.27c0,2.132,0.593,4.202,1.723,5.998l0.269,0.428l-1.136,4.16l4.264-1.118l0.409,0.245
			c1.729,1.026,3.714,1.57,5.741,1.57C19.887,27.927,25.073,22.869,25.073,16.651z M20.499,19.888
			c0.085,0.141,0.085,0.819-0.195,1.613c-0.281,0.794-1.631,1.515-2.285,1.612c-1.074,0.159-1.918,0.08-4.067-0.849
			c-3.402-1.472-5.62-4.893-5.791-5.118c-0.165-0.226-1.38-1.839-1.38-3.506s0.873-2.486,1.185-2.828
			c0.312-0.336,0.678-0.421,0.904-0.421c0.226,0,0.452,0,0.647,0.012c0.207,0.012,0.488-0.079,0.764,0.581
			c0.28,0.678,0.959,2.345,1.044,2.516c0.086,0.171,0.141,0.367,0.03,0.593c-0.647,1.295-1.344,1.252-0.995,1.851
			c1.313,2.254,2.62,3.036,4.611,4.031c0.336,0.171,0.538,0.141,0.733-0.085c0.201-0.232,0.849-0.989,1.075-1.332
			c0.226-0.342,0.451-0.287,0.763-0.171c0.312,0.11,1.979,0.928,2.315,1.1C20.193,19.65,20.419,19.736,20.499,19.888z"/>
	</g>
</g>
</svg>
